<svg id="eatWEIG0c7p1" xmlns="http://www.w3.org/2000/svg" xmlns:xlink="http://www.w3.org/1999/xlink" viewBox="50 50 300 300" shape-rendering="geometricPrecision" text-rendering="geometricPrecision" project-id="27d935b96d8f4c42b298f2792f512f89" export-id="5c34a4b8366f4f57ae3526c31d984384" cached="false"><ellipse rx="10" ry="10" transform="translate(270.000004 105)" fill="#f66" stroke="#000"/><ellipse rx="10" ry="10" transform="translate(270.000001 135)" fill="#f66" stroke="#000"/><path d="M50.242968,50Q27.614237,50,0,50c-27.614237,0-50-22.385763-50-50s22.385763-50,50-50q27.614237,0,50.242968,0q22.385763,0,50,0c27.614237,0,50-22.385763,50-50s-22.385763-50.242968-50-50.242968q-27.614237,0-50,.242968" transform="translate(149.878516 220.121484)" fill="none" stroke="#000" stroke-width="6"/><path d="M50.242968,50Q27.614237,50,0,50c-27.614237,0-50-22.385763-50-50s22.385763-50,50-50q27.614237,0,50.242968,0q22.385763,0,50,0c27.614237,0,50-22.385763,50-50s-22.385763-50.242968-50-50.242968q-27.614237,0-50,.242968" transform="translate(149.757032 220)" fill="none" stroke="#e46e6e" stroke-width="4"/><ellipse rx="10" ry="10" transform="translate(130 205)" fill="#f66" stroke="#000"/><ellipse rx="10" ry="10" transform="translate(130.426649 235)" fill="#f66" stroke="#000"/><g transform="translate(128.740906 315.379391)"><path d="M2.376,6.03v-24.498h2.718q.432,0,.738.198t.396.612l.36,1.71q1.116-1.278,2.565-2.07t3.393-.792q1.512,0,2.763.63t2.16,1.827t1.404,2.952.495,4.023q0,2.07-.558,3.834t-1.593,3.06-2.502,2.025-3.285.729q-1.566,0-2.655-.477t-1.953-1.323v7.56Zm8.64-21.33q-1.386,0-2.367.585t-1.827,1.647v8.28q.756.936,1.647,1.305t1.917.369q1.008,0,1.827-.378t1.386-1.152.873-1.953.306-2.781q0-1.62-.261-2.745t-.747-1.827-1.179-1.026-1.575-.324ZM28.692,5.076q-.198.468-.513.711t-.963.243h-3.312l3.456-7.398-7.47-17.1h3.888q.54,0,.828.252t.432.576l3.942,9.576q.198.468.342.972t.252,1.008q.144-.522.315-1.008t.369-.99l3.708-9.558q.144-.36.477-.594t.747-.234h3.564Z" fill="#a84646" stroke="#000" stroke-width="0.5"/><path d="M52.308,-14.868q-.18.288-.378.405t-.504.117q-.324,0-.693-.18t-.855-.405-1.107-.405-1.467-.18q-1.314,0-2.07.558t-.756,1.458q0,.594.387.999t1.026.711t1.449.549t1.656.531t1.656.657t1.449.936t1.026,1.359.387,1.908q0,1.332-.486,2.457t-1.422,1.944-2.313,1.278-3.159.459q-.954,0-1.863-.171t-1.746-.477-1.548-.72-1.251-.9l1.026-1.692q.198-.306.468-.468t.684-.162.783.234.855.504t1.143.504t1.665.234q.792,0,1.359-.189t.936-.495.54-.711.171-.837q0-.648-.387-1.062t-1.026-.72-1.458-.549-1.674-.531-1.674-.675-1.458-.981-1.026-1.458-.387-2.088q0-1.134.45-2.16t1.323-1.791t2.178-1.224t3.015-.459q1.908,0,3.474.63t2.61,1.656Zm9.504-11.88v26.748h-4.446v-26.748Zm9.756,8.28v18.468h-4.446v-18.468Zm.666-5.382q0,.576-.234,1.08t-.621.882-.909.603-1.116.225q-.576,0-1.089-.225t-.891-.603-.603-.882-.225-1.08q0-.594.225-1.116t.603-.9.891-.603t1.089-.225q.594,0,1.116.225t.909.603.621.9.234,1.116ZM82.656,0.288q-2.394,0-3.69-1.359t-1.296-3.753v-10.314h-1.872q-.36,0-.621-.234t-.261-.702v-1.764l2.97-.486.936-5.04q.072-.36.333-.558t.657-.198h2.304v5.814h4.86v3.168h-4.86v10.008q0,.864.432,1.35t1.152.486q.414,0,.693-.099t.486-.207.369-.207.324-.099q.198,0,.324.099t.27.297l1.332,2.16q-.972.81-2.232,1.224t-2.61.414ZM90.522,0v-26.748h4.446v10.278q1.08-1.026,2.376-1.656t3.042-.63q1.512,0,2.682.513t1.953,1.44t1.188,2.214.405,2.835v11.754h-4.446v-11.754q0-1.692-.783-2.619t-2.349-.927q-1.152,0-2.16.522t-1.908,1.422v13.356Zm28.098-18.756q1.746,0,3.213.558t2.529,1.629t1.656,2.628.594,3.555q0,.504-.045.837t-.162.522-.315.27-.504.081h-11.412q.198,2.844,1.53,4.176t3.528,1.332q1.08,0,1.863-.252t1.368-.558t1.026-.558.855-.252q.27,0,.468.108t.342.306l1.296,1.62q-.738.864-1.656,1.449t-1.917.936-2.034.495-2.007.144q-1.926,0-3.582-.639t-2.88-1.89-1.926-3.096-.702-4.275q0-1.89.612-3.555t1.755-2.898t2.79-1.953t3.717-.72Zm.09,3.186q-1.944,0-3.042,1.098t-1.404,3.114h8.352q0-.864-.234-1.629t-.72-1.341-1.224-.909-1.728-.333ZM130.23,0v-18.468h2.61q.684,0,.954.252t.36.864l.27,2.232q.99-1.71,2.322-2.7t2.988-.99q1.368,0,2.268.63l-.576,3.33q-.054.324-.234.459t-.486.135q-.27,0-.738-.126t-1.242-.126q-1.386,0-2.376.765t-1.674,2.241v11.502Z" fill="#f66" stroke="#000" stroke-width="0.5"/></g></svg>
