<svg id="eTq5zuFOaD81" xmlns="http://www.w3.org/2000/svg" xmlns:xlink="http://www.w3.org/1999/xlink" viewBox="0 0 1600 900" shape-rendering="geometricPrecision" text-rendering="geometricPrecision" project-id="25980f958869440382ddf10bfdaa8379" export-id="8bb28a77603f4e9cafb3830c74b6fa4f" cached="false" style="background-color:#1e1e1e"><line x1="-65" y1="35" x2="65" y2="-35" transform="translate(865 415)" fill="none" stroke="#a14300" stroke-width="3"/><line x1="-75" y1="-95" x2="75" y2="95" transform="translate(875 545)" fill="none" stroke="#a14300" stroke-width="3"/><line x1="0" y1="-150" x2="0" y2="150" transform="translate(800 600)" fill="none" stroke="#494949"/><line x1="-150" y1="0" x2="150" y2="0" transform="translate(950 450)" fill="none" stroke="#494949"/><line x1="0" y1="-150" x2="0" y2="150" transform="translate(800 300)" fill="none" stroke="#494949"/><line x1="150.47218" y1="0" x2="-150.47218" y2="0" transform="translate(649.52782 450)" fill="none" stroke="#494949"/><g><ellipse rx="20" ry="19.99995" transform="translate(670 450)" fill="#3b5da5" stroke-width="0"/><rect width="130" height="39.9999" rx="0" ry="0" transform="translate(670 430.00005)" fill="#3b5da5" stroke-width="0"/></g><polygon points="0,-160 138.564065,80 -138.564065,80 0,-160" transform="matrix(0 0.072167 -0.0625 0 830 450)" fill="#558cff" stroke-width="0"/><ellipse rx="50" ry="50" transform="matrix(0.4 0 0 0.399999 800 450)" fill="#558cff" stroke-width="0"/><ellipse rx="300" ry="300" transform="translate(800 450)" fill="none" stroke="#494949"/><g><ellipse rx="10" ry="10" transform="translate(930 380)" fill="#fb6900" stroke-width="0"/><ellipse rx="20" ry="20" transform="translate(950 640)" fill="#fb6900" stroke-width="0"/></g><g><ellipse rx="10" ry="10" transform="translate(1150 275.000247)" fill="#833700" stroke-width="0"/><ellipse rx="15" ry="15" transform="translate(965 110.000247)" fill="#833700" stroke-width="0"/><ellipse rx="15" ry="15" transform="translate(215 135)" fill="#833700" stroke-width="0"/><ellipse rx="10" ry="10" transform="translate(150 605.000247)" fill="#833700" stroke-width="0"/><ellipse rx="10" ry="10" transform="translate(1480 65.000247)" fill="#833700" stroke-width="0"/><ellipse rx="20" ry="20" transform="translate(1460 305.000247)" fill="#833700" stroke-width="0"/><ellipse rx="15" ry="15" transform="translate(1315 490.000247)" fill="#833700" stroke-width="0"/><ellipse rx="10" ry="10" transform="translate(480 590)" fill="#833700" stroke-width="0"/><ellipse rx="15" ry="15" transform="translate(315 810.000247)" fill="#833700" stroke-width="0"/><ellipse rx="10" ry="10" transform="translate(340 230)" fill="#833700" stroke-width="0"/><ellipse rx="15" ry="15" transform="translate(1495 810.000247)" fill="#833700" stroke-width="0"/></g></svg>
